<svg xmlns="http://www.w3.org/2000/svg" width="800" height="800" viewBox="0 0 800 800" fill="none">
  <rect width="800" height="800" fill="#F8FAFC"/>
  <path d="M246 262C246 174.754 316.754 104 404 104C491.246 104 562 174.754 562 262V330C562 365.346 533.346 394 498 394C462.654 394 434 365.346 434 330V262C434 245.431 420.569 232 404 232C387.431 232 374 245.431 374 262V330C374 436.039 287.039 523 181 523H168" stroke="#0F172A" stroke-width="34" stroke-linecap="round"/>
  <circle cx="168" cy="523" r="42" fill="#1D4ED8"/>
  <circle cx="634" cy="523" r="42" fill="#1D4ED8"/>
  <path d="M634 523C520 523 434 436.039 434 330" stroke="#0F172A" stroke-width="34" stroke-linecap="round"/>
  <text x="400" y="700" text-anchor="middle" fill="#0F172A" font-size="34" font-family="Arial" font-weight="700">Bluetooth Neckband</text>
</svg>
